0
SECTION
2
HEADER
9
$INSUNITS
70
4
9
$ACADVER
1
AC1014
9
$HANDSEED
5
FFFF
0
ENDSEC
0
SECTION
2
TABLES
0
TABLE
2
VPORT
5
8
100
AcDbSymbolTable
0
ENDTAB
0
TABLE
2
LTYPE
5
5
100
AcDbSymbolTable
0
LTYPE
5
14
100
AcDbSymbolTableRecord
100
AcDbLinetypeTableRecord
2
BYBLOCK
70
0
0
LTYPE
5
15
100
AcDbSymbolTableRecord
100
AcDbLinetypeTableRecord
2
BYLAYER
70
0
0
ENDTAB
0
TABLE
2
LAYER
5
2
100
AcDbSymbolTable
70
2
0
LAYER
5
50
100
AcDbSymbolTableRecord
100
AcDbLayerTableRecord
2
0
70
0
6
CONTINUOUS
0
ENDTAB
0
TABLE
2
STYLE
5
3
100
AcDbSymbolTable
70
1
0
STYLE
5
11
100
AcDbSymbolTableRecord
100
AcDbTextStyleTableRecord
2
STANDARD
70
0
0
ENDTAB
0
TABLE
2
VIEW
5
6
100
AcDbSymbolTable
70
0
0
ENDTAB
0
TABLE
2
UCS
5
7
100
AcDbSymbolTable
70
0
0
ENDTAB
0
TABLE
2
APPID
5
9
100
AcDbSymbolTable
70
2
0
APPID
5
12
100
AcDbSymbolTableRecord
100
AcDbRegAppTableRecord
2
ACAD
70
0
0
ENDTAB
0
TABLE
2
DIMSTYLE
5
A
100
AcDbSymbolTable
70
1
0
ENDTAB
0
TABLE
2
BLOCK_RECORD
5
1
100
AcDbSymbolTable
70
1
0
BLOCK_RECORD
5
1F
100
AcDbSymbolTableRecord
100
AcDbBlockTableRecord
2
*MODEL_SPACE
0
BLOCK_RECORD
5
1B
100
AcDbSymbolTableRecord
100
AcDbBlockTableRecord
2
*PAPER_SPACE
0
ENDTAB
0
ENDSEC
0
SECTION
2
BLOCKS
0
BLOCK
5
20
100
AcDbEntity
100
AcDbBlockBegin
2
*MODEL_SPACE
0
ENDBLK
5
21
100
AcDbEntity
100
AcDbBlockEnd
0
BLOCK
5
1C
100
AcDbEntity
100
AcDbBlockBegin
2
*PAPER_SPACE
0
ENDBLK
5
1D
100
AcDbEntity
100
AcDbBlockEnd
0
ENDSEC
0
SECTION
2
ENTITIES
0
LWPOLYLINE
5
100
100
AcDbEntity
8
0
100
AcDbPolyline
90
34
70
1
43
0.0
10
1.4700000000000026
20
1.5345113228647076
42
-0.037161294545406065
10
1.6809595474014283
20
1.299999999999994
10
2.5700000000000034
20
1.2999999999999945
10
2.5700000000000123
20
-1.2999999999999867
10
1.6809595474014283
20
-1.2999999999999967
42
-0.037161294545408285
10
1.4699999999999864
20
-1.5345113228647227
10
1.469999999999978
20
-2.6400000000000068
10
-1.4699999999999802
20
-2.6400000000000059
10
-1.4699999999999813
20
-1.5345113228647271
42
-0.037161294545407175
10
-1.6809595474014181
20
-1.300000000000008
10
-2.5700000000000078
20
-1.3000000000000056
10
-2.5700000000000078
20
1.2999999999999945
10
-1.6809595474014287
20
1.2999999999999921
42
-0.040404533132126857
10
-1.4499999999999966
20
1.5534236382906019
10
-1.4499999999999957
20
2.4999999999999956
10
-12.669999999999998
20
2.4999999999999956
10
-12.669999999999998
20
0.24999999999999356
10
-10.769999999999992
20
0.24999999999999245
10
-10.769999999999996
20
1.3599999999999945
10
-8.1699999999999946
20
1.3599999999999945
10
-8.1699999999999946
20
0.24999999999999356
10
-6.9199999999999973
20
0.24999999999999356
10
-6.9199999999999973
20
-2.6500000000000057
10
-8.169999999999991
20
-2.6500000000000057
10
-8.169999999999991
20
-3.7800000000000065
10
-10.769999999999996
20
-3.7800000000000065
10
-10.769999999999996
20
-2.6500000000000079
10
-12.669999999999998
20
-2.6500000000000066
10
-12.669999999999998
20
-4.9000000000000057
10
9.5800000000000018
20
-4.9000000000000057
10
9.5800000000000018
20
-3.8500000000000076
10
4.7700000000000031
20
-3.8500000000000076
10
4.7700000000000031
20
2.4999999999999956
10
1.4700000000000024
20
2.4999999999999956
0
ENDSEC
0
SECTION
2
OBJECTS
0
DICTIONARY
5
C
100
AcDbDictionary
3
ACAD_GROUP
350
D
3
ACAD_MLINESTYLE
350
17
0
DICTIONARY
5
D
100
AcDbDictionary
0
DICTIONARY
5
1A
330
C
100
AcDbDictionary
0
DICTIONARY
5
17
100
AcDbDictionary
0
ENDSEC
0
EOF
